<svg width="35" height="35" viewBox="0 0 35 35" fill="none" xmlns="http://www.w3.org/2000/svg">
<g clip-path="url(#clip0_17_44)">
<path d="M10.2083 16.0417V18.9584H24.7916V16.0417H10.2083ZM17.5 2.91669C9.44996 2.91669 2.91663 9.45002 2.91663 17.5C2.91663 25.55 9.44996 32.0834 17.5 32.0834C25.55 32.0834 32.0833 25.55 32.0833 17.5C32.0833 9.45002 25.55 2.91669 17.5 2.91669ZM17.5 29.1667C11.0687 29.1667 5.83329 23.9313 5.83329 17.5C5.83329 11.0688 11.0687 5.83335 17.5 5.83335C23.9312 5.83335 29.1666 11.0688 29.1666 17.5C29.1666 23.9313 23.9312 29.1667 17.5 29.1667Z" fill="#704116"/>
</g>
<defs>
<clipPath id="clip0_17_44">
<rect width="35" height="35" fill="white"/>
</clipPath>
</defs>
</svg>
