<svg width="37" height="37" viewBox="0 0 37 37" fill="none" xmlns="http://www.w3.org/2000/svg">
<g clip-path="url(#clip0_108_30)">
<path d="M16.7917 22.75C15.0959 22.75 13.7238 24.1375 13.7238 25.8334C13.7238 27.5292 15.0959 28.9167 16.7917 28.9167C18.4876 28.9167 19.8751 27.5292 19.8751 25.8334C19.8751 24.1375 18.4876 22.75 16.7917 22.75ZM7.54175 -1.91663V1.16671H10.6251L16.1751 12.868L14.0938 16.645C13.8472 17.0767 13.7084 17.5855 13.7084 18.125C13.7084 19.8209 15.0959 21.2084 16.7917 21.2084H35.2917V18.125H17.4392C17.2234 18.125 17.0538 17.9555 17.0538 17.7396L17.1001 17.5546L18.4876 15.0417H29.973C31.1292 15.0417 32.1467 14.4096 32.6709 13.4538L38.1901 3.44837C38.3134 3.23254 38.3751 2.97046 38.3751 2.70837C38.3751 1.86046 37.6813 1.16671 36.8334 1.16671H14.0322L12.583 -1.91663H7.54175ZM32.2084 22.75C30.5126 22.75 29.1405 24.1375 29.1405 25.8334C29.1405 27.5292 30.5126 28.9167 32.2084 28.9167C33.9042 28.9167 35.2917 27.5292 35.2917 25.8334C35.2917 24.1375 33.9042 22.75 32.2084 22.75Z" fill="#704116"/>
</g>
<defs>
<clipPath id="clip0_108_30">
<rect width="37" height="37" fill="white"/>
</clipPath>
</defs>
</svg>
