<svg width="37" height="37" viewBox="0 0 37 37" fill="none" xmlns="http://www.w3.org/2000/svg">
<g clip-path="url(#clip0_2_92)">
<path d="M10.7917 27.75C9.09585 27.75 7.72377 29.1375 7.72377 30.8333C7.72377 32.5292 9.09585 33.9167 10.7917 33.9167C12.4875 33.9167 13.875 32.5292 13.875 30.8333C13.875 29.1375 12.4875 27.75 10.7917 27.75ZM1.54169 3.08334V6.16668H4.62502L10.175 17.8679L8.09377 21.645C7.8471 22.0767 7.70835 22.5854 7.70835 23.125C7.70835 24.8208 9.09585 26.2083 10.7917 26.2083H29.2917V23.125H11.4392C11.2234 23.125 11.0538 22.9554 11.0538 22.7396L11.1 22.5546L12.4875 20.0417H23.9729C25.1292 20.0417 26.1467 19.4096 26.6709 18.4538L32.19 8.44834C32.3134 8.23251 32.375 7.97043 32.375 7.70834C32.375 6.86043 31.6813 6.16668 30.8334 6.16668H8.0321L6.58294 3.08334H1.54169ZM26.2084 27.75C24.5125 27.75 23.1404 29.1375 23.1404 30.8333C23.1404 32.5292 24.5125 33.9167 26.2084 33.9167C27.9042 33.9167 29.2917 32.5292 29.2917 30.8333C29.2917 29.1375 27.9042 27.75 26.2084 27.75Z" fill="#8F8787"/>
</g>
<defs>
<clipPath id="clip0_2_92">
<rect width="37" height="37" fill="white"/>
</clipPath>
</defs>
</svg>
