<svg width="37" height="37" viewBox="0 0 37 37" fill="none" xmlns="http://www.w3.org/2000/svg">
<g clip-path="url(#clip0_113_717)">
<path d="M14.7917 26.7499C13.0959 26.7499 11.7238 28.1374 11.7238 29.8333C11.7238 31.5291 13.0959 32.9166 14.7917 32.9166C16.4875 32.9166 17.875 31.5291 17.875 29.8333C17.875 28.1374 16.4875 26.7499 14.7917 26.7499ZM5.54169 2.08325V5.16659H8.62502L14.175 16.8678L12.0938 20.6449C11.8471 21.0766 11.7084 21.5853 11.7084 22.1249C11.7084 23.8208 13.0959 25.2083 14.7917 25.2083H33.2917V22.1249H15.4392C15.2234 22.1249 15.0538 21.9553 15.0538 21.7395L15.1 21.5545L16.4875 19.0416H27.9729C29.1292 19.0416 30.1467 18.4095 30.6709 17.4537L36.19 7.44825C36.3134 7.23242 36.375 6.97034 36.375 6.70825C36.375 5.86034 35.6813 5.16659 34.8334 5.16659H12.0321L10.5829 2.08325H5.54169ZM30.2084 26.7499C28.5125 26.7499 27.1404 28.1374 27.1404 29.8333C27.1404 31.5291 28.5125 32.9166 30.2084 32.9166C31.9042 32.9166 33.2917 31.5291 33.2917 29.8333C33.2917 28.1374 31.9042 26.7499 30.2084 26.7499Z" fill="#8F8787"/>
</g>
<defs>
<clipPath id="clip0_113_717">
<rect width="37" height="37" fill="white"/>
</clipPath>
</defs>
</svg>
