<svg width="37" height="37" viewBox="0 0 37 37" fill="none" xmlns="http://www.w3.org/2000/svg">
<g clip-path="url(#clip0_147_59)">
<path d="M15.7917 27.75C14.0959 27.75 12.7238 29.1375 12.7238 30.8333C12.7238 32.5292 14.0959 33.9167 15.7917 33.9167C17.4876 33.9167 18.8751 32.5292 18.8751 30.8333C18.8751 29.1375 17.4876 27.75 15.7917 27.75ZM6.54175 3.08334V6.16668H9.62508L15.1751 17.8679L13.0938 21.645C12.8472 22.0767 12.7084 22.5854 12.7084 23.125C12.7084 24.8208 14.0959 26.2083 15.7917 26.2083H34.2917V23.125H16.4392C16.2234 23.125 16.0538 22.9554 16.0538 22.7396L16.1001 22.5546L17.4876 20.0417H28.973C30.1292 20.0417 31.1467 19.4096 31.6709 18.4538L37.1901 8.44834C37.3134 8.23251 37.3751 7.97043 37.3751 7.70834C37.3751 6.86043 36.6813 6.16668 35.8334 6.16668H13.0322L11.583 3.08334H6.54175ZM31.2084 27.75C29.5126 27.75 28.1405 29.1375 28.1405 30.8333C28.1405 32.5292 29.5126 33.9167 31.2084 33.9167C32.9042 33.9167 34.2917 32.5292 34.2917 30.8333C34.2917 29.1375 32.9042 27.75 31.2084 27.75Z" fill="#8F8787"/>
</g>
<defs>
<clipPath id="clip0_147_59">
<rect width="37" height="37" fill="white"/>
</clipPath>
</defs>
</svg>
