<svg width="31" height="31" viewBox="0 0 31 31" fill="none" xmlns="http://www.w3.org/2000/svg">
<path d="M9.25 24.6667C7.55417 24.6667 6.18208 26.0542 6.18208 27.75C6.18208 29.4458 7.55417 30.8333 9.25 30.8333C10.9458 30.8333 12.3333 29.4458 12.3333 27.75C12.3333 26.0542 10.9458 24.6667 9.25 24.6667ZM0 0V3.08333H3.08333L8.63333 14.7846L6.55208 18.5617C6.30542 18.9933 6.16667 19.5021 6.16667 20.0417C6.16667 21.7375 7.55417 23.125 9.25 23.125H27.75V20.0417H9.8975C9.68167 20.0417 9.51208 19.8721 9.51208 19.6563L9.55833 19.4713L10.9458 16.9583H22.4313C23.5875 16.9583 24.605 16.3263 25.1292 15.3704L30.6483 5.365C30.7717 5.14917 30.8333 4.88708 30.8333 4.625C30.8333 3.77708 30.1396 3.08333 29.2917 3.08333H6.49042L5.04125 0H0ZM24.6667 24.6667C22.9708 24.6667 21.5988 26.0542 21.5988 27.75C21.5988 29.4458 22.9708 30.8333 24.6667 30.8333C26.3625 30.8333 27.75 29.4458 27.75 27.75C27.75 26.0542 26.3625 24.6667 24.6667 24.6667Z" fill="#704116"/>
</svg>
